<?xml version="1.0" encoding="utf-8"?>
<!-- Generator: Adobe Illustrator 17.1.0, SVG Export Plug-In . SVG Version: 6.00 Build 0)  -->
<!DOCTYPE svg PUBLIC "-//W3C//DTD SVG 1.1//EN" "http://www.w3.org/Graphics/SVG/1.1/DTD/svg11.dtd">
<svg version="1.1" id="Layer_1" xmlns="http://www.w3.org/2000/svg" xmlns:xlink="http://www.w3.org/1999/xlink" x="0px" y="0px"
	 width="32px" height="32px" viewBox="0 0 32 32" enable-background="new 0 0 32 32" xml:space="preserve">
<circle fill="#28A2DA" cx="16" cy="16" r="16"/>
<path fill="#FFFFFF" d="M2.7,5.7l23.6,23.6c0.8-0.6,2.5-2.4,3.2-3.1L5.8,2.6C5.1,3.2,3.3,5,2.7,5.7z"/>
<g>
	<path fill="#F9A325" d="M16,24c-4.4,0-8-3.6-8-8s3.6-8,8-8s8,3.6,8,8S20.4,24,16,24z"/>
	<path fill="#FFFFFF" d="M16,9.7c3.5,0,6.3,2.8,6.3,6.3s-2.8,6.3-6.3,6.3S9.7,19.5,9.7,16S12.5,9.7,16,9.7 M16,6.2
		c-5.4,0-9.8,4.4-9.8,9.8s4.4,9.8,9.8,9.8c5.4,0,9.8-4.4,9.8-9.8S21.4,6.2,16,6.2L16,6.2z"/>
</g>
</svg>
